<?xml version="1.0" encoding="UTF-8"?>
<svg id="Layer_1" data-name="Layer 1" xmlns="http://www.w3.org/2000/svg" viewBox="0 0 1080 288.97">
  <path d="M240.22,1.9h144.3l-112.01,48.64c-18.36,7.37-36.1,14.42-55.94,20.64-48.73,15.29-63.16,15.82-112.75,5.89-13.39-2.68-26.83-6.15-39.78-9.55l2.4-1.34c.93-.42.94-.4,2.2-.81l67.23-23.6c6.16-2.01,12.23-4.8,18.11-6.67l70.81-26.81,15.43-6.39Z" style="fill: #b0007a; fill-rule: evenodd;"/>
  <path d="M865.09,39.07c-1.6,29.09-19.53,55.65-41.21,73.44-2.11,1.73-2.36,2.3-4.18,4.1l-29.06,21.33c-9.63,6.53-55.98,32.43-66.53,34.17.84-2.67,2.13-3.5,3.75-6.06,7.6-12.1,11.28-16.44,18.38-30.64,2.3-4.59,4.59-8.73,6.47-13.14,11.81-27.63,22.55-62.34,14.45-93.97-2.51-9.8-6.13-18.55-10.85-26.42h103.71c3.82,11.68,5.8,24.05,5.07,37.18Z" style="fill: #b0007a; fill-rule: evenodd;"/>
  <path d="M43.57,1.9C29.75,6.87,14.74,9.86,2,9.27c.98-2.78,4.5-4.86,6.56-7l.44-.38h34.57Z" style="fill: #9df600; fill-rule: evenodd;"/>
  <path d="M98.01,1.9h94.71c-33.39,11.47-84.06,24.91-115.76,16.59,2.01-2.46,11.57-9.7,21.05-16.59Z" style="fill: #9df600; fill-rule: evenodd;"/>
  <path d="M945.73,1.9c-2.74,17.06-8.59,34.66-17.83,53.03-5.06,10.05-9.87,17.88-15.9,27.08-6.48,9.87-20.08,26.26-29.44,35.35-1.09,1.07-1.72,1.4-2.81,2.46-5.3,5.18-14.37,13.98-20.07,17.56l-12.1,8.96c-11.33,8.36-45.38,27.14-56.02,28.9,2.73-3.35,6.39-5.33,10.07-7.99l46.16-44.19c16.1-17.61,33.7-42.42,43.59-63.45,9.24-19.67,14.56-38.96,15.81-57.71h38.55Z" style="fill: #9df600; fill-rule: evenodd;"/>
  <path d="M724.75,89.42c-1.28,23.31-15.53,43.67-33.22,57.29-25.17,19.36-77.06,24.24-104.49,12.1-15.46-6.84-22.19-18.77-24.92-34.17-1.54-8.69-.54-16.44-4.71-22.81-6.92.21-9.6,3.43-12.83,7.47-21.92,27.35-55.39,46.94-95.41,45.09-7.92-.37-24.6-3.22-29.56-5.69,2.54-3.11,5.24-6.18,8.19-9.13,1.61-1.63,2.93-2.97,4.46-4.58,10.31-10.75,16.73-15.69,27.03-24.91,1.84-1.65,2.19-2.47,4.13-4.16l9.87-7.44c8.93-7.41,19.79-14.85,30-21.14,25.03-15.43,58.81-31.4,90.14-29.96,29.33,1.36,40.05,18.01,42.92,19.97.61-11.14-.56-15.3-4.49-22.99-3.23-6.33-7.79-10.44-13.74-14.65-8.46-5.98-22.78-9.79-34.2-11.43-9.21-1.33-19.43-1.7-27.97-.51-39.42,5.56-76.58,29.79-107.72,50.8-20.86,14.07-33.51,21.6-53.45,33.78-5.98,3.65-12.41,6.47-18.88,9.68-15.96,7.9-32.53,13.01-52.41,12.1-14.01-.65-28.19-16.26-27.27-32.91.87-15.76,11.92-23.99,26.19-28.79,10.37-3.49,40.46-16.5,52.6-21.75,2.13-.93,2.44-1.28,4.57-2.19l37.11-16.99c14.93-6.59,28.6-13.21,43.25-19.58h231.86c.36.38.66.73.91,1.05,11.57,14.76,13.36,14.74,22.63,34,8.36,17.35,10.56,31.81,9.43,52.48Z" style="fill: #8570fe; fill-rule: evenodd;"/>
  <path d="M1081.49,1.9c-21.34,81.83-59.51,138.7-111.78,209.76l-31.35,41c-1.82,2.39-5.18,5.57-6.11,8.21l-1.57-.08c-.58-2.92-2.29-5.51-3.5-8.06l-9.14-24.62c-3.1-10.2-7.78-24.68-7.08-37.29,1.32-23.87,16.09-30.31,32.59-45.8,2.08-1.95,2.6-2.85,4.99-4.79l13.47-13.64c27.39-29.98,53.14-77.99,56.06-124.69h63.41Z" style="fill: #9df600; fill-rule: evenodd;"/>
</svg>