<?xml version="1.0" encoding="UTF-8"?>
<svg xmlns="http://www.w3.org/2000/svg" width="1014.99" height="528.47" viewBox="0 0 1014.99 528.47">
  <g style="isolation: isolate;">
    <g id="Layer_1" data-name="Layer 1">
      <g style="mix-blend-mode: multiply; opacity: .4;">
        <path d="M554.97,9.99s-83.31-77.29-354.83-24.07C116.92,2.23-9.41,8.03-25.42,17.73c-.25.15-.49.3-.73.45-17.42,11.03-10.3,38.21,10.26,39.59C132.64,67.8,219.84-2.85,315.08-16.01c135.71-18.75,239.89,26.01,239.89,26.01Z" style="fill: #e6e6e6;"/>
        <path d="M480.86,63.67c-1.04-7.06,112.9,66.79,64.12,188.02-33.4,83-119.25,135.14-210.46,94.39-115.86-51.76-108.24-156.02-108.24-156.02,0,0-4.11-97.39,92.81-137.35,110.67-45.63,186.8,58.58,186.8,58.58,0,0,52.71,71.79,5.92,145.44-45.84,72.15-146.98,117.82-232.56,19.57-53.49-61.41-26.36-138.79-.78-165.15,93.5-96.33,180.85-11.03,180.85-11.03,0,0,79.64,59.4,7.56,162.14-25.86,36.87-77.09,44.45-105.31,35.56-72.75-22.91-76.25-73.24-76.25-73.24,0,0,46.42,90.14,134.99,58.43,40.89-14.64,66.1-77.13,61.83-117.02-2.79-26.08-18.46-47.75-37.06-62.81-17.45-14.12-37.49-22.42-51.91-23.07-113.12-5.09-123.19,97.38-123.19,97.38,0,0-12.43,87.95,61.56,124.54,76.58,37.86,140.82-21.66,148.89-30.54,40.74-44.84,40.64-123.93,6.76-161.83-73.24-81.93-150.31-51.04-167.54-42.08-97.31,50.67-82.52,143.52-82.52,143.52,0,0,14.82,98.11,107.24,128.01,103.12,33.35,161.08-39.44,170.14-54.37,87.08-143.59-32.62-214-33.66-221.06Z" style="fill: #e6e6e6;"/>
        <path d="M445.88,126.39s-58.38-65.32-132.27-2.86c-17.24,14.58-40.45,72.02-7.78,111.69,37.11,45.06,102.37,40.17,126.59,16.01,64.35-64.2,13.45-124.84,13.45-124.84Z" style="fill: #e6e6e6;"/>
        <path d="M340,131.24c-21.72,18.47-39.49,51.19-21.08,89.02,15.61,32.07,74.4,36.85,101.92,11.49,22.02-20.3,34.83-65.1,5.94-95.08-25.51-26.47-66.25-22.89-86.78-5.43Z" style="fill: #e6e6e6;"/>
        <path d="M414.07,144.66s-29.6-34.96-72.7-.63c-16.69,13.29-28.27,49.56-6.22,73.1,21.27,22.7,53.2,23.04,72.7,6.61,44.55-37.52,6.22-79.08,6.22-79.08Z" style="fill: #e6e6e6;"/>
        <path d="M356.29,165.36c-11.14,19.03,1.13,32.59,7.78,36.49,6.65,3.89,23.93,8.91,35.19-10.34,5.47-9.34.67-26.79-9.61-33.37-10.9-6.99-27.64-2.57-33.37,7.22Z" style="fill: #e6e6e6;"/>
        <path d="M919.92,434.27c-25.23-4.22-50.81,5.33-66.99,25.15-31.75,38.88-98.46,96.15-205.92,75.67-57.78-11.01-107.1-50.76-118.38-97.31-12.93-53.35,16.78-113.52,16.78-113.52,0,0-160.85,126.46,72.67,235.83,197.1,92.32,301.85-125.81,301.85-125.81h0Z" style="fill: #e6e6e6;"/>
        <path d="M654.79,250.87c-8.49-11.3-24.77-12.97-35.48-3.75-5.78,4.97-12.39,10.92-19,17.38-18.59,18.19-41.71,44.98-41.71,44.98,0,0,27.18-21.91,51.81-30.38,24.63-8.47,56.85-6.98,56.85-6.98,0,0,1-3.22-12.08-20.74-.13-.18-.26-.35-.39-.52Z" style="fill: #e6e6e6;"/>
        <path d="M837.46,427.15s-28.92,76.93-111.51,90.86c-105.68,17.83-204.63-64.76-169.28-147.66,38.19-89.55,111.95-60.29,130.01-46.3,85.47,66.23,4.39,173.82-56.24,138.56-54.64-31.77-35.66-77.5-27.29-89.36,30.04-42.61,65.87-19.2,75.2,7.05,12.57,35.35-20.88,50.62-33.41,39.86-30.66-26.31,9.5-38.35,9.5-38.35,0,0-27.38-11.33-32.8,14.93-7.13,34.51,49.56,66.83,70.37,3.32,13.91-42.46-51.41-90.12-86.38-55.5-72.32,71.6,10.31,127.67,17.2,130.1,123.03,43.37,124.24-100.64,124.24-100.64l36.46,24.44s.8,31.85-20.51,59.16c-32.53,41.69-71.44,45.1-71.44,45.1,0,0,33.92,3.02,73.03-35.32,22.52-22.07,34.25-61.2,34.25-61.2l38.6,20.97Z" style="fill: #e6e6e6;"/>
        <path d="M186.04,201.03c-8.23,1.91-40.18,22.36-77.45,13.45-39.61-9.47-77.85-4.95-77.85-4.95,0,0,31.22,28.6,50.55,39.21,43.31,23.78,88.26,33.4,102.42,26.83,18.75-8.7,10.56-76.45,2.33-74.54Z" style="fill: #e6e6e6;"/>
        <path d="M556.89,79.78c-5.39,3.31,50.34,61.21,91.59,118.53,45.7,63.5,79.25,153.37,86.3,148.7,6.31-4.18,29.69-12.99-67.61-164.94-38.5-60.13-101.84-107.48-110.29-102.28Z" style="fill: #e6e6e6;"/>
        <path d="M217.02,62.32s-56.85,19.36-84.66,32.48-53.23,32.59-53.23,32.59c27.49-1.25,53.01,5.32,76.48-5.29,23.47-10.61,61.41-59.79,61.41-59.79Z" style="fill: #e6e6e6;"/>
        <path d="M475.3,380.44c7.26,6.48-8.74,15.75-3.74,52.09,5.65,41.05,30.99,63.21,30.99,63.21,0,0-37.78-14.95-53.27-59.05-7.19-20.45-5.74-37.37-1.32-47.52,8.34-19.15,20.08-15.21,27.33-8.73Z" style="fill: #e6e6e6;"/>
        <path d="M596.3,170.05s4.26,20.1,1.76,43.47c-2.5,23.37-10.12,34.67-10.12,34.67,0,0,30.85-7.63,32.45-39.1,1.07-21.15-24.09-39.04-24.09-39.04Z" style="fill: #e6e6e6;"/>
        <path d="M219.77,110.34s65.51-78.71,119.61-87.47c79.19-12.83,140.14,24.69,140.14,24.69,0,0-56.04-53.12-144.25-33.7-73.59,16.21-115.5,96.48-115.5,96.48Z" style="fill: #e6e6e6;"/>
        <path d="M724.92,596.64s-133.33,35.99-211.15-16.85c-115.58-78.49-121.8-162.95-145.65-178.26-24.8-15.93,17.82,97.52,62.88,144.34,62.7,65.16,163.96,72.26,163.96,72.26,0,0-76,13.08-161.18-56.24-71.34-58.06-75.75-146.38-181.91-219.55-83.01-57.21-138.39-58.18-138.39-58.18,0,0,37.61,14.44,68.68,33.62,59.31,36.62,66.37,46.26,109.68,97.34,44.18,52.11,68.17,132.23,111.2,163.6,160.86,117.26,321.87,17.91,321.87,17.91Z" style="fill: #e6e6e6;"/>
        <path d="M195.27,123.32s-24.84,22.51-55.64,28.3c-29.3,5.51-57.56-5.47-86.18-2.86-45.61,4.16-81.64,10.17-81.64,10.17,0,0,21.19,30.19,48.72,36.37,10.32,2.32,39.56.22,59.15,1.68,32.66,2.43,59.14,6.26,77.63-5.34,32.48-20.37,37.97-68.32,37.97-68.32Z" style="fill: #e6e6e6;"/>
        <path d="M19.35,86.07c-1.18-4.68-35.27-8-64.49-4.2-29.21,3.8-50.15,9.22-52.52,19.42-2.37,10.2,24.32,12.71,54.97,10.33,30.64-2.37,64.77-14.71,62.04-25.55Z" style="fill: #e6e6e6;"/>
        <path d="M452.43,629.58s-63.06-12.78-96.12-64.11c-37.48-58.19-40.84-98.46-85.53-158.98-34.46-46.66-96.14-75.62-96.14-75.62,0,0,98.88,62.68,123.47,142.7,4.24,13.78,30.57,83.27,52.85,112.54,41.55,54.57,101.47,43.47,101.47,43.47Z" style="fill: #e6e6e6;"/>
        <path d="M1191.74,142.6c6.8-8.39-62.21-43.38-172.45-65.47-113.01-22.64-188.72-25.7-188.72-25.7,0,0,137.25,29.89,161.18,38.76,23.93,8.86,67.94,41.64,95.64,45.13,27.71,3.49,99.29,13.54,104.35,7.29Z" style="fill: #e6e6e6;"/>
        <path d="M692.98,53.72s169.67-3,300.95,62.84c68.14,34.18,101.11,78.18,101.74,133.35.5,43.97-8.22,88.05-53.11,113.09-58.16,32.45-111.86,11.74-111.86,11.74,0,0,172.58,6.31,130.54-140.76-30.2-105.66-204.43-126.2-246.12-131.94-101.41-13.98-122.14-48.32-122.14-48.32Z" style="fill: #e6e6e6;"/>
        <path d="M668.99,71.59s61.66,22.39,135.25,42.63c100.33,27.6,186.54,38.42,221.49,123.93,13.37,32.71,9.4,77.04-12.89,101.07-32.11,34.62-109.05,10.57-109.05,10.57,0,0,129.86-33.91,58.47-131.07-47.5-64.66-198.07-67.47-257.59-104.84-14.21-8.93-35.69-42.29-35.69-42.29Z" style="fill: #e6e6e6;"/>
        <path d="M775.82,158.84c-20.06-6.48-33.78,20.71-16.45,32.71.21.14.41.28.62.42,33.93,22.5,108.22,4.74,139.36,33.62,30.31,28.11,7.74,46.49,7.74,46.49,0,0,4.99-24.86-33.27-37.26-38.27-12.4-87.62-1.91-87.62-1.91l1.97,2.98c14.32,21.7,40.99,29.04,66.09,22.24,1.79-.49,3.68-.41,5.66.37,10.31,4.06-35.67,26.11,13.06,59.1,11.08,7.5,24.72,11,37.81,8.29,42.3-8.76,56.88-68.34,33.38-99.3-31.43-41.41-94.29-46.7-150.7-62.43-6.17-1.72-12.07-3.51-17.65-5.31Z" style="fill: #e6e6e6;"/>
        <path d="M82.68,93.08c-8.53-3.67-35.21,7.19-80.26,22.69-28.15,9.68-64.22-.02-68.04,9.5-3.89,9.71,22.86,32.65,94.97,18.88,49.04-9.36,61.86-47.41,53.33-51.07Z" style="fill: #e6e6e6;"/>
        <path d="M665.22,23.38c12.18,9.74,27.34,14.94,42.93,14.73,61.97-.84,230.26-.37,334.17,26.31,246.99,63.43,320.54,143.02,319.78,166.78-2.88,89.64-158.33,51.15-202.91,38.24-5.99-1.73-11.99,2.69-12.14,8.93h0c-.1,4.09,2.4,7.79,6.25,9.18,20.7,7.47,88.05,29.15,151.55,20.33,70.53-9.79,98.14-51.57,84.05-82.41-23.37-51.13-159.34-123.64-294.17-164.48C884.64-2.64,665.22,23.38,665.22,23.38h0Z" style="fill: #e6e6e6;"/>
        <g>
          <path d="M159.23,392.91s48.74,49.46,54.99,87.18c13.22,79.78,69.57,145.94,75.1,161.92,5.53,15.99,23.4,42.86,2.47,42.71-16.41-.12-83.23-98.19-90.14-145.72-13.48-92.72-42.42-146.09-42.42-146.09Z" style="fill: #e6e6e6;"/>
          <path d="M10.8,252.11q-7.99,2.76-.65,15.33c7.34,12.58,76.26,48,102.41,144.17,14.47,53.21,21.29,147.4,51.27,202.25,66.81,122.24,160.18,181.29,168.83,186.59,8.65,5.31,27.25-22.91-51.69-86.1-32.83-26.28-77.66-80.97-94.03-112.98-47.5-92.9-13.19-191.36-85.22-271.72-48.77-54.41-82.94-80.3-90.93-77.54Z" style="fill: #e6e6e6;"/>
          <path d="M-72.09,194.32c-8.13,3.05-3.08,12.64,14.6,63.16,16.08,45.93,30.34,70.28,44.71,93.36,19.62,31.52,23.93,102.6,27.85,122.51,3.92,19.92,16.85,74.17,30.27,60.64,9.7-9.78,7-126.25-28.43-186.07-20.67-34.9-35.49-93.39-52.03-113.47-7.79-9.45-28.84-43.19-36.97-40.14Z" style="fill: #e6e6e6;"/>
          <path d="M12.27,299.28c-5.55,2.32-1.56,13.11,4.34,21.66,5.9,8.55,36.72,50.73,46.94,90.59,10.22,39.86,14.49,136.39,12.36,150.56-4.04,26.76,21.14,43.78,29.43,20.94,8.23-22.66,3.95-138.15-20.59-191.43-45.13-98.01-67.11-94.57-72.48-92.32Z" style="fill: #e6e6e6;"/>
        </g>
        <path d="M983.35,417.26c15.32-5.19,30.18.95,65.25-13.43,42.6-17.47,50.18-41.99,57.35-42.58,13.61-1.11,36.44,3.9,40.35,7.52,3.91,3.63-30.67,34.29-72.13,55.12-41.46,20.83-117.61,38.81-117.61,38.81,0,0,11.48-40.26,26.8-45.45Z" style="fill: #e6e6e6;"/>
        <path d="M404.75,649.99s24.73,36.43,59.26,39.17c54.99,4.36,76.47-33.39,76.47-33.39,0,0,119.73,11.45,208.26-11.99,107.77-28.54,215.41-131.85,215.41-131.85,0,0-67.47,99.19-170.73,143.13-77.4,32.94-245.99,28.72-245.99,28.72,0,0-42.35,41.48-82.85,25.98-40.5-15.5-59.84-59.77-59.84-59.77Z" style="fill: #e6e6e6;"/>
      </g>
    </g>
  </g>
</svg>